<?xml version="1.0" encoding="utf-8"?>
<!-- Generator: Adobe Illustrator 28.2.0, SVG Export Plug-In . SVG Version: 6.00 Build 0)  -->
<svg version="1.1" id="Calque_1" xmlns="http://www.w3.org/2000/svg" xmlns:xlink="http://www.w3.org/1999/xlink" x="0px" y="0px"
	 viewBox="0 0 32 32" style="enable-background:new 0 0 32 32;" xml:space="preserve">
<style type="text/css">
	.st0{fill:#FFFFFF;}
</style>
<path class="st0" d="M16,17.9l3.9,3.9c0.2,0.2,0.6,0.4,0.9,0.4s0.7-0.1,0.9-0.4c0.2-0.2,0.4-0.6,0.4-0.9c0-0.4-0.1-0.7-0.4-0.9
	L17.9,16l3.9-3.9c0.2-0.2,0.4-0.6,0.4-0.9c0-0.4-0.1-0.7-0.4-0.9c-0.2-0.2-0.6-0.4-0.9-0.4c-0.4,0-0.7,0.1-0.9,0.4L16,14.1l-3.9-3.9
	c-0.2-0.2-0.6-0.4-0.9-0.4c-0.4,0-0.7,0.1-0.9,0.4s-0.4,0.6-0.4,0.9c0,0.4,0.1,0.7,0.4,0.9l3.9,3.9l-3.9,3.9
	c-0.2,0.2-0.4,0.6-0.4,0.9c0,0.4,0.1,0.7,0.4,0.9s0.6,0.4,0.9,0.4c0.4,0,0.7-0.1,0.9-0.4L16,17.9z M16,29.3c-1.8,0-3.6-0.4-5.2-1.1
	c-1.6-0.7-3-1.7-4.2-2.8c-1.2-1.2-2.1-2.6-2.8-4.2c-0.7-1.6-1-3.4-1.1-5.2c0-1.8,0.3-3.6,1.1-5.2s1.7-3,2.8-4.2s2.6-2.1,4.2-2.8
	s3.4-1.1,5.2-1.1c1.8,0,3.6,0.4,5.2,1.1c1.6,0.7,3,1.7,4.2,2.8c1.2,1.2,2.1,2.6,2.9,4.2s1.1,3.4,1,5.2s-0.4,3.6-1.1,5.2
	c-0.7,1.6-1.6,3-2.8,4.2c-1.2,1.2-2.6,2.1-4.2,2.9C19.6,29,17.8,29.3,16,29.3"/>
</svg>
